# xmcd CD database file
#
# Track frame offsets:
#	150
#	22782
#	54897
#	65262
#	100355
#	133210
#	144950
#	158822
#
# Disc length: 2461 seconds
#
# Revision: 0
# Processed by: cddbd v1.5.2PL0 Copyright (c) Steve Scherf et al.
# Submitted via: CDex 1.51
#
DISCID=60099b08
DTITLE=Howard Riley Trio - Angle
DYEAR=1969
DGENRE=Jazz
TTITLE0=Exit
TTITLE1=Gormenghast
TTITLE2=S&S
TTITLE3=Fragment
TTITLE4=Angle
TTITLE5=Aftermath
TTITLE6=Three Fragments
TTITLE7=Gill
EXTD=YEAR: 1969
EXTT0=
EXTT1=
EXTT2=
EXTT3=
EXTT4=
EXTT5=
EXTT6=
EXTT7=
PLAYORDER=
